<mxfile host="65bd71144e">
    <diagram id="MW9fmgTbeqjVrj6KISc_" name="Page-1">
        <mxGraphModel dx="589" dy="306" grid="1" gridSize="10" guides="1" tooltips="1" connect="1" arrows="1" fold="1" page="1" pageScale="1" pageWidth="850" pageHeight="1100" math="0" shadow="0">
            <root>
                <mxCell id="0"/>
                <mxCell id="1" parent="0"/>
                <mxCell id="2" value="" style="whiteSpace=wrap;html=1;" vertex="1" parent="1">
                    <mxGeometry x="50" y="80" width="460" height="180" as="geometry"/>
                </mxCell>
                <mxCell id="3" value="LIBRETA DE DEUDORES Y ACREEDORES" style="text;strokeColor=none;align=center;fillColor=none;html=1;verticalAlign=middle;whiteSpace=wrap;rounded=0;" vertex="1" parent="1">
                    <mxGeometry x="185" y="40" width="190" height="30" as="geometry"/>
                </mxCell>
                <mxCell id="4" value="" style="shape=note;whiteSpace=wrap;html=1;backgroundOutline=1;fontColor=#000000;darkOpacity=0.05;fillColor=#FFF9B2;strokeColor=none;fillStyle=solid;direction=west;gradientDirection=north;gradientColor=#FFF2A1;shadow=1;size=20;pointerEvents=1;" vertex="1" parent="1">
                    <mxGeometry x="100" y="100" width="380" height="40" as="geometry"/>
                </mxCell>
                <mxCell id="5" value="" style="shape=note;whiteSpace=wrap;html=1;backgroundOutline=1;fontColor=#000000;darkOpacity=0.05;fillColor=#FFF9B2;strokeColor=none;fillStyle=solid;direction=west;gradientDirection=north;gradientColor=#FFF2A1;shadow=1;size=20;pointerEvents=1;" vertex="1" parent="1">
                    <mxGeometry x="100" y="150" width="380" height="40" as="geometry"/>
                </mxCell>
                <mxCell id="6" value="" style="shape=note;whiteSpace=wrap;html=1;backgroundOutline=1;fontColor=#000000;darkOpacity=0.05;fillColor=#FFF9B2;strokeColor=none;fillStyle=solid;direction=west;gradientDirection=north;gradientColor=#FFF2A1;shadow=1;size=20;pointerEvents=1;" vertex="1" parent="1">
                    <mxGeometry x="100" y="210" width="380" height="40" as="geometry"/>
                </mxCell>
                <mxCell id="7" value="&lt;span style=&quot;background-color: rgb(0, 0, 0);&quot;&gt;&lt;b&gt;cliente 1&lt;/b&gt;&lt;/span&gt;" style="text;strokeColor=none;align=center;fillColor=none;html=1;verticalAlign=middle;whiteSpace=wrap;rounded=0;" vertex="1" parent="1">
                    <mxGeometry x="100" y="100" width="60" height="30" as="geometry"/>
                </mxCell>
                <mxCell id="8" value="&lt;span style=&quot;background-color: rgb(0, 0, 0);&quot;&gt;&lt;b&gt;cliente 1&lt;/b&gt;&lt;/span&gt;" style="text;strokeColor=none;align=center;fillColor=none;html=1;verticalAlign=middle;whiteSpace=wrap;rounded=0;" vertex="1" parent="1">
                    <mxGeometry x="100" y="150" width="60" height="30" as="geometry"/>
                </mxCell>
                <mxCell id="9" value="&lt;span style=&quot;background-color: rgb(0, 0, 0);&quot;&gt;&lt;b&gt;cliente 1&lt;/b&gt;&lt;/span&gt;" style="text;strokeColor=none;align=center;fillColor=none;html=1;verticalAlign=middle;whiteSpace=wrap;rounded=0;" vertex="1" parent="1">
                    <mxGeometry x="100" y="210" width="60" height="30" as="geometry"/>
                </mxCell>
                <mxCell id="11" value="ver cuaderno" style="whiteSpace=wrap;html=1;labelBackgroundColor=#000000;" vertex="1" parent="1">
                    <mxGeometry x="220" y="120" width="80" height="20" as="geometry"/>
                </mxCell>
                <mxCell id="12" value="agregar mov" style="whiteSpace=wrap;html=1;labelBackgroundColor=#000000;" vertex="1" parent="1">
                    <mxGeometry x="310" y="120" width="80" height="20" as="geometry"/>
                </mxCell>
                <mxCell id="13" value="borrar" style="whiteSpace=wrap;html=1;labelBackgroundColor=#000000;" vertex="1" parent="1">
                    <mxGeometry x="400" y="120" width="80" height="20" as="geometry"/>
                </mxCell>
                <mxCell id="14" value="ver cuaderno" style="whiteSpace=wrap;html=1;labelBackgroundColor=#000000;" vertex="1" parent="1">
                    <mxGeometry x="220" y="170" width="80" height="20" as="geometry"/>
                </mxCell>
                <mxCell id="15" value="agregar mov" style="whiteSpace=wrap;html=1;labelBackgroundColor=#000000;" vertex="1" parent="1">
                    <mxGeometry x="310" y="170" width="80" height="20" as="geometry"/>
                </mxCell>
                <mxCell id="16" value="borrar" style="whiteSpace=wrap;html=1;labelBackgroundColor=#000000;" vertex="1" parent="1">
                    <mxGeometry x="400" y="170" width="80" height="20" as="geometry"/>
                </mxCell>
                <mxCell id="17" value="ver cuaderno" style="whiteSpace=wrap;html=1;labelBackgroundColor=#000000;" vertex="1" parent="1">
                    <mxGeometry x="220" y="230" width="80" height="20" as="geometry"/>
                </mxCell>
                <mxCell id="18" value="agregar mov" style="whiteSpace=wrap;html=1;labelBackgroundColor=#000000;" vertex="1" parent="1">
                    <mxGeometry x="310" y="230" width="80" height="20" as="geometry"/>
                </mxCell>
                <mxCell id="19" value="borrar" style="whiteSpace=wrap;html=1;labelBackgroundColor=#000000;" vertex="1" parent="1">
                    <mxGeometry x="400" y="230" width="80" height="20" as="geometry"/>
                </mxCell>
                <mxCell id="21" value="&lt;font color=&quot;#ffffff&quot;&gt;agregar&amp;nbsp;&lt;/font&gt;" style="shape=note;whiteSpace=wrap;html=1;backgroundOutline=1;fontColor=#000000;darkOpacity=0.05;fillColor=#FFF9B2;strokeColor=none;fillStyle=solid;direction=west;gradientDirection=north;gradientColor=#FFF2A1;shadow=1;size=20;pointerEvents=1;labelBackgroundColor=#000000;" vertex="1" parent="1">
                    <mxGeometry x="390" y="10" width="90" height="60" as="geometry"/>
                </mxCell>
            </root>
        </mxGraphModel>
    </diagram>
</mxfile>